<?xml version="1.0" standalone="no"?>
<!DOCTYPE svg PUBLIC "-//W3C//DTD SVG 20010904//EN"
 "http://www.w3.org/TR/2001/REC-SVG-20010904/DTD/svg10.dtd">
<svg version="1.0" xmlns="http://www.w3.org/2000/svg"
 width="500.000000pt" height="500.000000pt" viewBox="0 0 500.000000 500.000000"
 preserveAspectRatio="xMidYMid meet">
<metadata>
Created by potrace 1.14, written by Peter Selinger 2001-2017
</metadata>
<g transform="translate(0.000000,500.000000) scale(0.100000,-0.100000)"
fill="#000000" stroke="none">
<path d="M2230 4945 c-58 -7 -118 -16 -135 -20 -16 -3 -44 -8 -62 -10 -17 -3
-43 -9 -56 -14 -14 -6 -27 -8 -30 -5 -2 2 -17 0 -33 -7 -16 -6 -39 -13 -52
-15 -27 -5 -216 -67 -257 -85 -16 -7 -32 -13 -35 -14 -29 -10 -210 -96 -240
-114 -8 -5 -53 -32 -100 -60 -47 -27 -94 -57 -105 -65 -11 -9 -50 -37 -86 -63
-162 -117 -326 -278 -482 -473 -16 -19 -118 -169 -134 -195 -7 -11 -28 -47
-49 -80 -20 -33 -37 -64 -38 -70 -2 -10 -9 -24 -46 -90 -67 -121 -180 -475
-204 -640 -3 -22 -8 -51 -11 -65 -26 -129 -27 -544 -1 -700 3 -14 7 -41 10
-60 8 -57 34 -170 56 -250 11 -41 22 -79 23 -85 10 -37 31 -92 40 -102 5 -7 7
-13 4 -13 -12 0 98 -240 157 -345 53 -94 70 -122 89 -150 12 -16 25 -31 29
-33 4 -2 8 -8 8 -14 0 -6 10 -23 22 -38 13 -15 32 -40 43 -55 48 -68 117 -146
211 -239 105 -106 127 -126 209 -190 28 -22 52 -43 53 -48 2 -4 8 -8 13 -8 5
0 32 -18 61 -40 29 -22 59 -40 66 -40 6 0 12 -4 12 -8 0 -5 12 -15 28 -22 15
-8 38 -22 52 -31 98 -65 368 -183 535 -233 117 -36 120 -36 152 -42 16 -3 44
-9 63 -14 19 -5 51 -11 70 -14 19 -3 51 -8 70 -11 93 -14 150 -17 330 -20 296
-5 521 29 795 121 55 19 107 36 115 38 38 11 258 116 344 165 36 21 179 114
250 164 17 12 37 30 44 40 7 9 17 17 22 17 15 0 231 205 300 286 69 80 144
177 194 254 31 47 62 92 68 101 6 10 10 20 9 24 -2 4 2 11 7 14 12 7 109 200
146 288 29 69 92 255 100 293 3 14 10 41 16 60 5 19 13 49 15 65 3 17 10 53
15 80 26 129 35 241 35 430 0 196 -8 308 -31 430 -3 17 -8 44 -10 60 -6 33
-46 188 -65 250 -7 22 -13 42 -14 45 -3 15 -47 128 -55 142 -6 10 -10 23 -10
29 0 10 -99 212 -138 281 -26 46 -95 151 -103 158 -3 3 -14 20 -23 38 -9 17
-21 32 -26 32 -6 0 -10 5 -10 11 0 10 -23 39 -98 129 -97 115 -294 296 -432
397 -80 58 -250 164 -250 155 0 -4 -4 -2 -8 3 -8 12 -182 98 -246 122 -22 8
-50 19 -61 23 -111 45 -335 107 -450 124 -11 2 -42 7 -70 11 -27 4 -61 9 -75
12 -58 11 -451 10 -550 -2z"/>
</g>
</svg>
